<?xml version="1.0" standalone="no"?><!DOCTYPE svg PUBLIC "-//W3C//DTD SVG 1.1//EN" "http://www.w3.org/Graphics/SVG/1.1/DTD/svg11.dtd"><svg t="1689575080468" class="icon" viewBox="0 0 1024 1024" version="1.1" xmlns="http://www.w3.org/2000/svg" p-id="4438" xmlns:xlink="http://www.w3.org/1999/xlink" width="200" height="200"><path d="M0 48.7424m51.2 0l336.4352 0q51.2 0 51.2 51.2l0 336.4352q0 51.2-51.2 51.2l-336.4352 0q-51.2 0-51.2-51.2l0-336.4352q0-51.2 51.2-51.2Z" p-id="4439"></path><path d="M0 585.1648m51.2 0l336.4352 0q51.2 0 51.2 51.2l0 336.4352q0 51.2-51.2 51.2l-336.4352 0q-51.2 0-51.2-51.2l0-336.4352q0-51.2 51.2-51.2Z" p-id="4440"></path><path d="M791.9104 65.2288l166.912 166.8608a51.2 51.2 0 0 1 0 72.3968l-166.912 166.912a51.2 51.2 0 0 1-72.3968 0l-166.912-166.912a51.2 51.2 0 0 1 0-72.3968l166.912-166.912a51.2 51.2 0 0 1 72.3968 0z" p-id="4441"></path><path d="M536.3712 585.1648m51.2 0l336.4352 0q51.2 0 51.2 51.2l0 336.4352q0 51.2-51.2 51.2l-336.4352 0q-51.2 0-51.2-51.2l0-336.4352q0-51.2 51.2-51.2Z" p-id="4442"></path></svg>