<?xml version="1.0" standalone="no"?><!DOCTYPE svg PUBLIC "-//W3C//DTD SVG 1.1//EN" "http://www.w3.org/Graphics/SVG/1.1/DTD/svg11.dtd"><svg t="1689575147626" class="icon" viewBox="0 0 1024 1024" version="1.1" xmlns="http://www.w3.org/2000/svg" p-id="8557" xmlns:xlink="http://www.w3.org/1999/xlink" width="200" height="200"><path d="M513 98.2c-137.5 0-249 139.4-249 311.3s111.5 311.3 249 311.3 249-139.4 249-311.3S650.5 98.2 513 98.2z m0 581c-114.5 0-207.5-121.1-207.5-269.8s93-269.8 207.5-269.8 207.5 121.1 207.5 269.8-93 269.8-207.5 269.8z m181.3 5.4c-11 10.7-22.8 20.5-35.3 29.4 39.4 18.4 74.2 33.7 103.8 46.6 110 48 123.8 57.4 123.8 84.6-1.4 22.3-19.2 40.1-41.5 41.5H181c-22.3-1.4-40.1-19.2-41.5-41.5 0-27.2 13.8-36.7 123.8-84.6 29.6-12.9 64.3-28.2 103.8-46.6-12.5-8.9-24.3-18.7-35.3-29.4C158.9 763.7 98 774.3 98 845.2c1.5 45.2 37.8 81.5 83 83h664.1c45.2-1.5 81.5-37.8 83-83 0-70.9-60.9-81.5-233.8-160.6z" p-id="8558"></path></svg>