<?xml version="1.0" standalone="no"?><!DOCTYPE svg PUBLIC "-//W3C//DTD SVG 1.1//EN" "http://www.w3.org/Graphics/SVG/1.1/DTD/svg11.dtd"><svg t="1673838254724" class="icon" viewBox="0 0 1024 1024" version="1.1" xmlns="http://www.w3.org/2000/svg" p-id="6466" xmlns:xlink="http://www.w3.org/1999/xlink" width="200" height="200"><path d="M511.808 512c121.344 0 219.84-100.352 219.84-224.128S633.152 63.808 511.808 63.808c-121.408 0-219.84 100.288-219.84 224.064s98.368 224.128 219.84 224.128z m302.848 139.84c-50.24-58.496-67.2-78.656-159.168-84.032h-287.04c-92.032 5.504-108.928 25.536-159.04 84.032-53.376 60.352-95.872 137.024-75.776 231.872 22.4 62.144 82.688 76.416 139.904 76.416H750.592c57.152 0 117.568-14.4 139.968-76.416 19.904-94.848-22.528-171.456-75.904-231.872z" p-id="6467"></path></svg>